<svg width="166" height="166" viewBox="0 0 166 166" fill="none" xmlns="http://www.w3.org/2000/svg">
<path d="M16.6014 149.399C16.6014 140.679 18.3189 132.045 21.6558 123.989C24.9927 115.933 29.8837 108.613 36.0495 102.447C42.2153 96.2816 49.5351 91.3906 57.5912 88.0537C65.6472 84.7168 74.2815 82.9993 83.0013 82.9993V149.399L16.6014 149.399Z" fill="#1A1A1A"/>
<path d="M83.0016 82.9995C83.0016 91.7193 84.7191 100.354 88.056 108.41C91.3929 116.466 96.2839 123.786 102.45 129.951C108.616 136.117 115.935 141.008 123.991 144.345C132.047 147.682 140.682 149.399 149.402 149.399L149.402 82.9995L83.0016 82.9995Z" fill="#FFD400"/>
<path d="M83.0013 82.9993C83.0013 74.2795 81.2838 65.6451 77.9469 57.5891C74.61 49.5331 69.719 42.2132 63.5532 36.0474C57.3874 29.8816 50.0675 24.9907 42.0115 21.6538C33.9555 18.3168 25.3211 16.5994 16.6014 16.5994L16.6014 82.9993H83.0013Z" fill="#FFD400"/>
<path d="M149.401 16.5994C149.401 25.3191 147.684 33.9535 144.347 42.0095C141.01 50.0655 136.119 57.3854 129.953 63.5512C123.787 69.717 116.468 74.608 108.411 77.9449C100.355 81.2818 91.7211 82.9993 83.0013 82.9993L83.0013 16.5994H149.401Z" fill="#1A1A1A"/>
</svg>
