<svg width="60" height="60" viewBox="0 0 60 60" fill="none" xmlns="http://www.w3.org/2000/svg">
<path d="M6.57032 28.1771L6.56937 28.1799C5.38795 31.673 4.79346 35.0487 4.79346 38.3047V47.4126C4.79346 48.7934 5.91275 49.9126 7.29346 49.9126H18.5623C19.943 49.9126 21.0623 48.7934 21.0623 47.4126L21.0623 38.1957L21.0623 38.1916C21.0274 34.0376 21.6898 30.255 23.0415 26.8372C24.203 23.9445 25.5932 21.1503 27.2122 18.4547C27.9072 17.2975 27.6032 15.7752 26.4627 15.0152L20.436 10.9993C19.5208 10.3894 18.2914 10.438 17.4581 11.1977C15.2872 13.1771 13.3032 15.5145 11.5048 18.2068L11.5041 18.2078C9.43075 21.3285 7.78595 24.6519 6.57032 28.1771ZM33.4499 28.1771L33.4489 28.1799C32.2675 31.673 31.673 35.0487 31.673 38.3047V47.4126C31.673 48.7934 32.7923 49.9126 34.173 49.9126H45.4419C46.8226 49.9126 47.9419 48.7934 47.9419 47.4126L47.9419 38.1957L47.9419 38.1916C47.907 34.0378 48.5693 30.2553 49.9208 26.8377C51.0824 23.9447 52.4727 21.1505 54.0918 18.4547C54.7868 17.2975 54.4828 15.7752 53.3423 15.0152L47.3156 10.9993C46.4004 10.3894 45.1709 10.438 44.3377 11.1977C42.1668 13.1771 40.1827 15.5145 38.3844 18.2068L38.3837 18.2078C36.3103 21.3285 34.6655 24.6519 33.4499 28.1771Z" fill="#FFE566" stroke="#FFE566"/>
</svg>
